<?xml version="1.0" encoding="UTF-8"?>
<svg version="1.1" xmlns="http://www.w3.org/2000/svg" width="232" height="354">
<path d="M0 0 C76.56 0 153.12 0 232 0 C232 116.82 232 233.64 232 354 C155.44 354 78.88 354 0 354 C0 237.18 0 120.36 0 0 Z " fill="#424654" transform="translate(0,0)"/>
<path d="M0 0 C1.18464844 -0.03287109 2.36929688 -0.06574219 3.58984375 -0.09960938 C13.31659382 -0.1599218 13.31659382 -0.1599218 16.3828125 2.77734375 C19.20534233 7.087081 19.2644423 10.685162 19.23852539 15.6628418 C19.23867142 16.39479767 19.23881744 17.12675354 19.2389679 17.88088989 C19.2382714 20.29952969 19.23049128 22.71809241 19.22265625 25.13671875 C19.22079114 26.81394916 19.21936767 28.49118011 19.21836853 30.16841125 C19.2145507 34.58250432 19.20472666 38.99656447 19.19366455 43.41064453 C19.18343467 47.91503453 19.17886753 52.41942985 19.17382812 56.92382812 C19.16310375 65.76173321 19.14603611 74.59961387 19.125 83.4375 C20.84389687 83.22556 20.84389687 83.22556 22.59751892 83.00933838 C24.12741314 82.82410997 25.65732649 82.63903944 27.18725586 82.45410156 C27.9393911 82.36093658 28.69152634 82.26777161 29.46645355 82.17178345 C36.21638297 81.36135817 42.8893947 81.13850465 49.6875 81.1875 C50.76451172 81.17976563 51.84152344 81.17203125 52.95117188 81.1640625 C59.2318371 81.17891919 65.3371935 81.63314247 71.55444336 82.45410156 C72.28656792 82.54829376 73.01869247 82.64248596 73.77300262 82.73953247 C75.55735168 82.96948914 77.34122779 83.20311077 79.125 83.4375 C79.11500725 82.04807693 79.11500725 82.04807693 79.10481262 80.63058472 C79.04464209 71.89109175 78.99899534 63.1516686 78.96956348 54.41201591 C78.95392347 49.91911846 78.93271567 45.42639251 78.89868164 40.93359375 C78.86602871 36.59585006 78.84813447 32.2582711 78.84036827 27.92041397 C78.8348354 26.26744113 78.82403099 24.61447706 78.80780983 22.96157455 C78.78595629 20.64199254 78.78303632 18.32308676 78.78442383 16.00341797 C78.77443108 14.02485306 78.77443108 14.02485306 78.76423645 12.00631714 C79.15455546 8.14512558 80.11513435 5.73411573 82.125 2.4375 C86.82142224 -1.05767338 93.55121177 0.02720396 99.125 0 C100.31351563 -0.03287109 101.50203125 -0.06574219 102.7265625 -0.09960938 C103.86867187 -0.10669922 105.01078125 -0.11378906 106.1875 -0.12109375 C107.23035156 -0.13454834 108.27320313 -0.14800293 109.34765625 -0.16186523 C112.125 0.4375 112.125 0.4375 114.42578125 2.7824707 C125.85017981 20.63309345 124.87036533 51.85669475 126.125 72.4375 C126.16670319 73.09373352 126.20840637 73.74996704 126.25137329 74.42608643 C127.14667399 88.82031338 127.37467447 103.20803883 127.42016602 117.62792969 C127.43172226 120.16769974 127.45223084 122.70744482 127.48168945 125.24707031 C127.71758641 145.71607288 127.90951429 166.1800649 115.9375 183.625 C109.5078526 190.0546474 101.92436327 194.95206581 93.125 197.4375 C91.805 197.4375 90.485 197.4375 89.125 197.4375 C89.125 198.0975 89.125 198.7575 89.125 199.4375 C89.81980469 199.53160156 90.51460938 199.62570313 91.23046875 199.72265625 C94.71872656 200.58412883 97.34241023 202.05724887 100.4375 203.875 C101.50613281 204.49246094 102.57476562 205.10992187 103.67578125 205.74609375 C104.48402344 206.30425781 105.29226562 206.86242187 106.125 207.4375 C106.125 208.0975 106.125 208.7575 106.125 209.4375 C106.81207031 209.52128906 107.49914062 209.60507813 108.20703125 209.69140625 C111.8392906 210.62013655 114.69017291 212.37713499 117.8125 214.375 C118.68358398 214.91543945 118.68358398 214.91543945 119.57226562 215.46679688 C121.98372438 216.98057966 124.10549429 218.41799429 126.125 220.4375 C126.84945921 226.44016204 125.86419241 229.73047965 122.609375 234.7734375 C120.81434262 236.78576327 119.71235632 237.62560543 117.125 238.4375 C111.28611528 238.22020657 107.1418404 236.19007663 102.1875 233.375 C101.16172852 232.80942383 101.16172852 232.80942383 100.11523438 232.23242188 C98.44642204 231.31049058 96.78492136 230.37534488 95.125 229.4375 C95.31835938 230.18128906 95.51171875 230.92507812 95.7109375 231.69140625 C101.02038071 253.95426963 103.22273718 281.50882772 95.125 303.4375 C93.6171875 305.76953125 93.6171875 305.76953125 91.125 307.4375 C87.94516615 308.01693132 84.84899437 307.99585284 81.625 307.9375 C80.77035156 307.95296875 79.91570312 307.9684375 79.03515625 307.984375 C78.20886719 307.97921875 77.38257813 307.9740625 76.53125 307.96875 C75.78166016 307.96423828 75.03207031 307.95972656 74.25976562 307.95507812 C71.20528514 307.21451332 70.0390644 305.89873603 68.125 303.4375 C67.30371094 300.78027344 67.30371094 300.78027344 66.859375 297.796875 C66.63072754 296.35006348 66.63072754 296.35006348 66.39746094 294.87402344 C66.22504883 293.6574707 66.05263672 292.44091797 65.875 291.1875 C65.2975 287.31 64.72 283.4325 64.125 279.4375 C54.225 279.1075 44.325 278.7775 34.125 278.4375 C33.2598111 285.78012425 33.2598111 285.78012425 32.4206543 293.12573242 C32.30633057 294.04717041 32.19200684 294.9686084 32.07421875 295.91796875 C31.96424561 296.85535889 31.85427246 297.79274902 31.7409668 298.75854492 C31.03978856 301.80810052 29.92438362 303.88895776 28.125 306.4375 C24.59941767 308.20029117 20.57104409 307.66463881 16.6875 307.6875 C15.37942383 307.7184375 15.37942383 307.7184375 14.04492188 307.75 C13.20638672 307.75515625 12.36785156 307.7603125 11.50390625 307.765625 C10.7363501 307.7749707 9.96879395 307.78431641 9.17797852 307.79394531 C6.55896793 307.33922353 5.73052014 306.52349766 4.125 304.4375 C3.29456559 302.02351308 2.60777902 299.71758283 2 297.25 C1.66742188 295.97769531 1.33484375 294.70539063 0.9921875 293.39453125 C-3.63539369 273.34332042 -1.97152856 250.260386 3.125 230.4375 C1.990625 231.015 0.85625 231.5925 -0.3125 232.1875 C-1.83292511 232.93832722 -3.35378175 233.68828103 -4.875 234.4375 C-5.61878906 234.8190625 -6.36257812 235.200625 -7.12890625 235.59375 C-12.29712451 238.11044759 -16.11795186 239.26257428 -21.875 238.4375 C-23.93359375 236.5390625 -23.93359375 236.5390625 -25.3125 234.0625 C-26.02212891 232.84433594 -26.02212891 232.84433594 -26.74609375 231.6015625 C-28.68387291 227.88692702 -29.38825338 225.71461147 -28.875 221.4375 C-25.53961255 218.37823331 -21.86329675 216.14509815 -17.9453125 213.90625 C-16.81996094 213.26042969 -15.69460937 212.61460937 -14.53515625 211.94921875 C-13.3568267 211.27854767 -12.17844088 210.60797545 -11 209.9375 C-9.82920439 209.26731597 -8.65862956 208.59674609 -7.48828125 207.92578125 C-4.2861346 206.09232357 -1.08108408 204.26406104 2.125 202.4375 C3.56524962 201.61483793 5.00538675 200.79197881 6.4453125 199.96875 C7.32960937 199.4634375 8.21390625 198.958125 9.125 198.4375 C8.36316406 198.21835938 7.60132813 197.99921875 6.81640625 197.7734375 C-5.73653871 193.91822594 -15.76931719 187.633794 -22.125 175.875 C-29.87459829 159.30119246 -29.08396768 140.46137907 -29.0625 122.5625 C-29.06189575 121.62875549 -29.0612915 120.69501099 -29.06066895 119.73297119 C-28.8964016 25.17708 -28.8964016 25.17708 -15.875 2.4375 C-11.02474558 -0.79600295 -5.70242261 0.02774152 0 0 Z " fill="#444856" transform="translate(68.875,22.5625)"/>
<path d="M0 0 C1.18464844 -0.03287109 2.36929688 -0.06574219 3.58984375 -0.09960938 C13.31659382 -0.1599218 13.31659382 -0.1599218 16.3828125 2.77734375 C19.20534233 7.087081 19.2644423 10.685162 19.23852539 15.6628418 C19.23867142 16.39479767 19.23881744 17.12675354 19.2389679 17.88088989 C19.2382714 20.29952969 19.23049128 22.71809241 19.22265625 25.13671875 C19.22079114 26.81394916 19.21936767 28.49118011 19.21836853 30.16841125 C19.2145507 34.58250432 19.20472666 38.99656447 19.19366455 43.41064453 C19.18343467 47.91503453 19.17886753 52.41942985 19.17382812 56.92382812 C19.16310375 65.76173321 19.14603611 74.59961387 19.125 83.4375 C20.84389687 83.22556 20.84389687 83.22556 22.59751892 83.00933838 C24.12741314 82.82410997 25.65732649 82.63903944 27.18725586 82.45410156 C27.9393911 82.36093658 28.69152634 82.26777161 29.46645355 82.17178345 C36.21638297 81.36135817 42.8893947 81.13850465 49.6875 81.1875 C50.76451172 81.17976563 51.84152344 81.17203125 52.95117188 81.1640625 C59.2318371 81.17891919 65.3371935 81.63314247 71.55444336 82.45410156 C72.28656792 82.54829376 73.01869247 82.64248596 73.77300262 82.73953247 C75.55735168 82.96948914 77.34122779 83.20311077 79.125 83.4375 C79.11500725 82.04807693 79.11500725 82.04807693 79.10481262 80.63058472 C79.04464209 71.89109175 78.99899534 63.1516686 78.96956348 54.41201591 C78.95392347 49.91911846 78.93271567 45.42639251 78.89868164 40.93359375 C78.86602871 36.59585006 78.84813447 32.2582711 78.84036827 27.92041397 C78.8348354 26.26744113 78.82403099 24.61447706 78.80780983 22.96157455 C78.78595629 20.64199254 78.78303632 18.32308676 78.78442383 16.00341797 C78.77443108 14.02485306 78.77443108 14.02485306 78.76423645 12.00631714 C79.15455546 8.14512558 80.11513435 5.73411573 82.125 2.4375 C86.82142224 -1.05767338 93.55121177 0.02720396 99.125 0 C100.31351563 -0.03287109 101.50203125 -0.06574219 102.7265625 -0.09960938 C103.86867187 -0.10669922 105.01078125 -0.11378906 106.1875 -0.12109375 C107.23035156 -0.13454834 108.27320313 -0.14800293 109.34765625 -0.16186523 C112.125 0.4375 112.125 0.4375 114.42578125 2.7824707 C125.85017981 20.63309345 124.87036533 51.85669475 126.125 72.4375 C126.16670319 73.09373352 126.20840637 73.74996704 126.25137329 74.42608643 C127.14667399 88.82031338 127.37467447 103.20803883 127.42016602 117.62792969 C127.43172226 120.16769974 127.45223084 122.70744482 127.48168945 125.24707031 C127.71758641 145.71607288 127.90951429 166.1800649 115.9375 183.625 C109.5078526 190.0546474 101.92436327 194.95206581 93.125 197.4375 C91.805 197.4375 90.485 197.4375 89.125 197.4375 C89.125 198.0975 89.125 198.7575 89.125 199.4375 C89.81980469 199.53160156 90.51460938 199.62570313 91.23046875 199.72265625 C94.71872656 200.58412883 97.34241023 202.05724887 100.4375 203.875 C101.50613281 204.49246094 102.57476562 205.10992187 103.67578125 205.74609375 C104.48402344 206.30425781 105.29226562 206.86242187 106.125 207.4375 C106.125 208.0975 106.125 208.7575 106.125 209.4375 C106.81207031 209.52128906 107.49914062 209.60507813 108.20703125 209.69140625 C111.8392906 210.62013655 114.69017291 212.37713499 117.8125 214.375 C118.68358398 214.91543945 118.68358398 214.91543945 119.57226562 215.46679688 C121.98372438 216.98057966 124.10549429 218.41799429 126.125 220.4375 C126.84945921 226.44016204 125.86419241 229.73047965 122.609375 234.7734375 C120.81434262 236.78576327 119.71235632 237.62560543 117.125 238.4375 C111.28611528 238.22020657 107.1418404 236.19007663 102.1875 233.375 C101.16172852 232.80942383 101.16172852 232.80942383 100.11523438 232.23242188 C98.44642204 231.31049058 96.78492136 230.37534488 95.125 229.4375 C95.31835938 230.18128906 95.51171875 230.92507812 95.7109375 231.69140625 C101.02038071 253.95426963 103.22273718 281.50882772 95.125 303.4375 C93.6171875 305.76953125 93.6171875 305.76953125 91.125 307.4375 C87.94516615 308.01693132 84.84899437 307.99585284 81.625 307.9375 C80.77035156 307.95296875 79.91570312 307.9684375 79.03515625 307.984375 C78.20886719 307.97921875 77.38257813 307.9740625 76.53125 307.96875 C75.78166016 307.96423828 75.03207031 307.95972656 74.25976562 307.95507812 C71.20528514 307.21451332 70.0390644 305.89873603 68.125 303.4375 C67.30371094 300.78027344 67.30371094 300.78027344 66.859375 297.796875 C66.63072754 296.35006348 66.63072754 296.35006348 66.39746094 294.87402344 C66.22504883 293.6574707 66.05263672 292.44091797 65.875 291.1875 C65.2975 287.31 64.72 283.4325 64.125 279.4375 C54.225 279.1075 44.325 278.7775 34.125 278.4375 C33.2598111 285.78012425 33.2598111 285.78012425 32.4206543 293.12573242 C32.30633057 294.04717041 32.19200684 294.9686084 32.07421875 295.91796875 C31.96424561 296.85535889 31.85427246 297.79274902 31.7409668 298.75854492 C31.03978856 301.80810052 29.92438362 303.88895776 28.125 306.4375 C24.59941767 308.20029117 20.57104409 307.66463881 16.6875 307.6875 C15.37942383 307.7184375 15.37942383 307.7184375 14.04492188 307.75 C13.20638672 307.75515625 12.36785156 307.7603125 11.50390625 307.765625 C10.7363501 307.7749707 9.96879395 307.78431641 9.17797852 307.79394531 C6.55896793 307.33922353 5.73052014 306.52349766 4.125 304.4375 C3.29456559 302.02351308 2.60777902 299.71758283 2 297.25 C1.66742188 295.97769531 1.33484375 294.70539063 0.9921875 293.39453125 C-3.63539369 273.34332042 -1.97152856 250.260386 3.125 230.4375 C1.990625 231.015 0.85625 231.5925 -0.3125 232.1875 C-1.83292511 232.93832722 -3.35378175 233.68828103 -4.875 234.4375 C-5.61878906 234.8190625 -6.36257812 235.200625 -7.12890625 235.59375 C-12.29712451 238.11044759 -16.11795186 239.26257428 -21.875 238.4375 C-23.93359375 236.5390625 -23.93359375 236.5390625 -25.3125 234.0625 C-26.02212891 232.84433594 -26.02212891 232.84433594 -26.74609375 231.6015625 C-28.68387291 227.88692702 -29.38825338 225.71461147 -28.875 221.4375 C-25.53961255 218.37823331 -21.86329675 216.14509815 -17.9453125 213.90625 C-16.81996094 213.26042969 -15.69460937 212.61460937 -14.53515625 211.94921875 C-13.3568267 211.27854767 -12.17844088 210.60797545 -11 209.9375 C-9.82920439 209.26731597 -8.65862956 208.59674609 -7.48828125 207.92578125 C-4.2861346 206.09232357 -1.08108408 204.26406104 2.125 202.4375 C3.56524962 201.61483793 5.00538675 200.79197881 6.4453125 199.96875 C7.32960937 199.4634375 8.21390625 198.958125 9.125 198.4375 C8.36316406 198.21835938 7.60132813 197.99921875 6.81640625 197.7734375 C-5.73653871 193.91822594 -15.76931719 187.633794 -22.125 175.875 C-29.87459829 159.30119246 -29.08396768 140.46137907 -29.0625 122.5625 C-29.06189575 121.62875549 -29.0612915 120.69501099 -29.06066895 119.73297119 C-28.8964016 25.17708 -28.8964016 25.17708 -15.875 2.4375 C-11.02474558 -0.79600295 -5.70242261 0.02774152 0 0 Z M-13.875 5.4375 C-15.18029013 9.74281614 -15.91186345 14.20702377 -16.75 18.625 C-16.88095062 19.3125235 -17.01190125 20.000047 -17.14682007 20.70840454 C-32.73365287 101.88987294 -32.73365287 101.88987294 -15.875 178.4375 C-8.32531253 187.62349312 0.67909609 192.51061886 12.125 195.4375 C13.445 195.4375 14.765 195.4375 16.125 195.4375 C15.92865967 196.06092285 15.73231934 196.6843457 15.5300293 197.32666016 C10.08501886 214.69251733 10.08501886 214.69251733 6.125 232.4375 C5.84550099 233.77613547 5.56552506 235.11467143 5.28515625 236.453125 C1.13014981 257.61488879 -0.0047343 283.11316424 8.125 303.4375 C13.735 303.4375 19.345 303.4375 25.125 303.4375 C27.77667317 297.13884776 28.95851493 291.19701797 29.8125 284.4375 C30.245625 281.1375 30.67875 277.8375 31.125 274.4375 C43.335 274.4375 55.545 274.4375 68.125 274.4375 C68.455 278.3975 68.785 282.3575 69.125 286.4375 C69.55594017 289.3605056 70.00943365 292.22920131 70.5625 295.125 C70.68431641 295.82560547 70.80613281 296.52621094 70.93164062 297.24804688 C71.25823559 298.99270704 71.68307402 300.71842909 72.125 302.4375 C75.31324568 304.03162284 78.75396662 303.53924735 82.25 303.5 C83.38115234 303.49323242 83.38115234 303.49323242 84.53515625 303.48632812 C86.39847127 303.47453499 88.26174555 303.45659942 90.125 303.4375 C103.48189508 270.51294071 93.84479537 229.844266 83.125 197.4375 C82.795 196.7775 82.465 196.1175 82.125 195.4375 C82.74246094 195.33953125 83.35992187 195.2415625 83.99609375 195.140625 C96.19692557 192.98644465 107.54287939 187.75752247 115.0625 177.5625 C125.50348808 161.19024639 123.45889733 139.69133492 123.375 121.0625 C123.37189819 119.84507111 123.36879639 118.62764221 123.36560059 117.37332153 C125.19190489 59.31711911 125.19190489 59.31711911 111.125 4.4375 C107.00005849 4.37965292 102.87522056 4.34395593 98.75 4.3125 C97.574375 4.29574219 96.39875 4.27898438 95.1875 4.26171875 C94.06601563 4.25527344 92.94453125 4.24882812 91.7890625 4.2421875 C90.75217285 4.23171387 89.7152832 4.22124023 88.64697266 4.21044922 C85.95391377 4.18134974 85.95391377 4.18134974 84.125 6.4375 C83.93708085 9.05775721 83.87314215 11.57141315 83.89794922 14.19189453 C83.89765717 14.99197937 83.89736511 15.79206421 83.89706421 16.61639404 C83.89846044 19.26780953 83.9140353 21.91894594 83.9296875 24.5703125 C83.93341659 26.40591274 83.93626405 28.24151498 83.93826294 30.07711792 C83.9459076 34.91377232 83.9655632 39.75030703 83.9876709 44.58691406 C84.00811143 49.52016582 84.01726081 54.45343687 84.02734375 59.38671875 C84.04880833 69.07036515 84.08295428 78.75392263 84.125 88.4375 C83.54168915 88.3485849 82.9583783 88.2596698 82.35739136 88.1680603 C70.26111627 86.35065758 58.50117148 84.94619141 46.25 85.0625 C45.00476563 85.05089844 43.75953125 85.03929688 42.4765625 85.02734375 C35.65147177 85.04849589 29.32977668 85.62864431 22.65185547 86.96240234 C21.92288559 87.10369064 21.19391571 87.24497894 20.44285583 87.39054871 C18.66934344 87.73496152 16.89703687 88.08557425 15.125 88.4375 C15.13166183 87.44413635 15.13832367 86.45077271 15.14518738 85.42730713 C15.20598325 76.06912043 15.2509653 66.71097376 15.28043652 57.35263443 C15.29609729 52.54132104 15.31734311 47.73016699 15.35131836 42.91894531 C15.38389708 38.27647077 15.40184991 33.63414955 15.40963173 28.99156952 C15.41517791 27.21971981 15.42600818 25.44787855 15.44219017 23.67609406 C15.46394485 21.19566159 15.46696778 18.71586397 15.46557617 16.23535156 C15.476362 15.50167358 15.48714783 14.76799561 15.4982605 14.01208496 C15.47924572 10.88307361 15.29288021 8.73996414 13.76071167 5.97950745 C11.42135829 3.77416747 9.82596699 3.96435124 6.65234375 4.01171875 C5.58822266 4.02009766 4.52410156 4.02847656 3.42773438 4.03710938 C2.31720703 4.06611328 1.20667969 4.09511719 0.0625 4.125 C-1.6090918 4.13950195 -1.6090918 4.13950195 -3.31445312 4.15429688 C-8.76650641 3.99162815 -8.76650641 3.99162815 -13.875 5.4375 Z " fill="#EFF0F1" transform="translate(68.875,22.5625)"/>
<path d="M0 0 C16.83 0 33.66 0 51 0 C51.0825 5.48625 51.165 10.9725 51.25 16.625 C51.28641602 18.34541504 51.32283203 20.06583008 51.36035156 21.83837891 C51.37204526 23.21776078 51.38223547 24.59715657 51.390625 25.9765625 C51.41108887 26.67998779 51.43155273 27.38341309 51.45263672 28.1081543 C51.45623292 33.23813984 50.19651188 36.03948268 47 40 C40.20723312 46.49742919 34.14636457 47.3615953 25.125 47.375 C24.26519531 47.39949219 23.40539062 47.42398438 22.51953125 47.44921875 C15.48977075 47.48122069 10.25858146 45.87521894 4.94140625 41.18359375 C4.25884766 40.31927734 4.25884766 40.31927734 3.5625 39.4375 C3.08941406 38.85871094 2.61632812 38.27992188 2.12890625 37.68359375 C-0.44582379 33.84377144 -0.1301394 29.914942 -0.09765625 25.48828125 C-0.09664917 24.84258179 -0.09564209 24.19688232 -0.09460449 23.53161621 C-0.08938211 21.12522601 -0.07542083 18.71886118 -0.0625 16.3125 C-0.041875 10.929375 -0.02125 5.54625 0 0 Z " fill="#FEFEFE" transform="translate(93,231)"/>
<path d="M0 0 C2.63671875 0.4296875 2.63671875 0.4296875 5.76171875 2.2421875 C7.65499272 5.46075325 7.94966927 6.83362172 8.21875 10.44140625 C8.33041504 11.91033325 8.33041504 11.91033325 8.44433594 13.40893555 C8.9964068 22.07742886 9.34482959 30.74884676 9.63671875 39.4296875 C9.68989258 40.83613525 9.68989258 40.83613525 9.74414062 42.27099609 C9.83572947 44.8864184 9.89773939 47.50070425 9.94921875 50.1171875 C9.97894775 50.90029297 10.00867676 51.68339844 10.03930664 52.49023438 C10.07700903 56.06838984 9.96131807 58.00871229 7.7421875 60.88671875 C3.8517576 63.73777591 0.36528646 64.06133291 -4.36328125 63.4296875 C-7.80078125 61.7421875 -7.80078125 61.7421875 -10.36328125 59.4296875 C-14.25268948 46.69187556 -12.50454028 30.45957185 -12.67578125 17.3046875 C-12.70551025 16.08966553 -12.73523926 14.87464355 -12.76586914 13.62280273 C-12.77352295 12.48399658 -12.78117676 11.34519043 -12.7890625 10.171875 C-12.80364502 9.1597998 -12.81822754 8.14772461 -12.83325195 7.10498047 C-11.57608619 -0.0513948 -6.13067725 -0.2782951 0 0 Z " fill="#FCFCFC" transform="translate(172.36328125,43.5703125)"/>
<path d="M0 0 C0.825 -0.0103125 1.65 -0.020625 2.5 -0.03125 C6.19735714 0.75443839 7.57685906 1.52886958 10 4.5 C10.67302483 8.46586706 10.51142957 12.3654705 10.375 16.375 C10.35429443 17.52653564 10.33358887 18.67807129 10.31225586 19.86450195 C10.23842107 23.4112521 10.12518574 26.95471994 10 30.5 C9.94851807 32.11382568 9.94851807 32.11382568 9.89599609 33.76025391 C9.08391138 58.21901382 9.08391138 58.21901382 5.9375 61.9375 C2.13516881 63.96001659 -0.77793396 64.22646885 -5 63.5 C-7.91927604 62.1038245 -9.72202996 60.77797004 -12 58.5 C-12.15112305 55.68457031 -12.15112305 55.68457031 -12.01171875 52.078125 C-11.98960831 51.42956543 -11.96749786 50.78100586 -11.94471741 50.11279297 C-11.86965505 47.99130785 -11.77945078 45.87081566 -11.6875 43.75 C-11.62934989 42.2952686 -11.571735 40.84051571 -11.51464844 39.38574219 C-11.42784987 37.19057239 -11.33965354 34.99551287 -11.24661255 32.80059814 C-11.06253767 28.40839953 -10.94251176 24.02099324 -10.87890625 19.625 C-10.85675049 18.62049805 -10.83459473 17.61599609 -10.81176758 16.58105469 C-10.77156171 14.7382594 -10.74837538 12.89498832 -10.74487305 11.05175781 C-10.62313021 6.92634508 -10.55944248 5.13768619 -7.765625 1.953125 C-4.88789728 0.44109857 -3.22344151 -0.04029302 0 0 Z " fill="#FDFDFD" transform="translate(67,43.5)"/>
<path d="M0 0 C-0.45108085 2.08191162 -0.91365744 4.16176267 -1.421875 6.23046875 C-2.07002737 9.01821065 -2.07002737 9.01821065 -2.203125 11.98828125 C-2.62447033 15.59261573 -3.14142403 17.85700768 -5 21 C-10.84011254 25.45836677 -19.51697218 29.77513436 -27 29 C-27.89434157 27.59546357 -28.76493192 26.17578131 -29.625 24.75 C-30.11226562 23.96109375 -30.59953125 23.1721875 -31.1015625 22.359375 C-32 20 -32 20 -31.44677734 18.09570312 C-29.43556777 15.18240191 -26.78241869 13.78538494 -23.75 12.109375 C-23.13608398 11.75989807 -22.52216797 11.41042114 -21.88964844 11.050354 C-20.59466736 10.31591967 -19.29673339 9.58667082 -17.99609375 8.86230469 C-16.00100955 7.75056257 -14.01563589 6.62289451 -12.03125 5.4921875 C-2.31128571 0 -2.31128571 0 0 0 Z " fill="#474B58" transform="translate(76,228)"/>
<path d="M0 0 C0.99 0.33 1.98 0.66 3 1 C3 1.66 3 2.32 3 3 C3.63679687 3.22558594 4.27359375 3.45117188 4.9296875 3.68359375 C9.17272906 5.50281132 13.11297528 7.78601406 17.125 10.0625 C18.73043345 10.97241578 20.33715257 11.88006789 21.9453125 12.78515625 C23.00516357 13.38662476 23.00516357 13.38662476 24.08642578 14.00024414 C26.12576632 15.13026715 26.12576632 15.13026715 29 16 C29 16.66 29 17.32 29 18 C29.99 18.33 30.98 18.66 32 19 C31.46864683 23.51650194 29.76591425 26.42058156 27 30 C21.60998182 31.79667273 16.86273206 28.29855926 12.00073242 25.88452148 C6.51124821 22.77860831 3.7679327 20.06824265 1.88232422 14.00317383 C0.79270672 9.33611895 0 4.81459806 0 0 Z " fill="#474B58" transform="translate(159,226)"/>
<path d="M0 0 C2.97529433 1.25275551 4.46540241 2.38314405 6.375 5 C6.98105429 8.63632575 6.84661336 10.28314769 4.8125 13.375 C1.41629157 15.63913895 -0.62599302 15.64269755 -4.625 15 C-7.56681099 12.43534427 -8.47156921 10.7518109 -9.25 6.9375 C-8.625 4 -8.625 4 -5.9375 1.5625 C-2.625 0 -2.625 0 0 0 Z " fill="#EEEEEF" transform="translate(157.625,131)"/>
<path d="M0 0 C4.46822034 1.88135593 4.46822034 1.88135593 6.375 4 C6.94488508 7.91795996 6.96960908 10.07240983 4.8125 13.4375 C1.46993717 15.58016848 -0.72995209 15.49573337 -4.625 15 C-7.51394982 13.36292844 -7.67813228 11.83122689 -8.6875 8.625 C-8.625 5 -8.625 5 -6 2 C-2.625 0 -2.625 0 0 0 Z " fill="#F1F2F3" transform="translate(79.625,131)"/>
<path d="M0 0 C0.33 0.99 0.66 1.98 1 3 C0.01 3.495 0.01 3.495 -1 4 C-0.175 4.45375 0.65 4.9075 1.5 5.375 C2.7375 6.179375 2.7375 6.179375 4 7 C4 7.66 4 8.32 4 9 C3.27554688 8.82082031 2.55109375 8.64164063 1.8046875 8.45703125 C-4.43893634 7.00054282 -4.43893634 7.00054282 -10.5625 8.375 C-11.366875 8.91125 -12.17125 9.4475 -13 10 C-13.66 10 -14.32 10 -15 10 C-14.67 9.01 -14.34 8.02 -14 7 C-11.9375 6.3125 -11.9375 6.3125 -10 6 C-10 5.34 -10 4.68 -10 4 C-11.32 4 -12.64 4 -14 4 C-13.67 3.01 -13.34 2.02 -13 1 C-12.09507813 1.14308594 -12.09507813 1.14308594 -11.171875 1.2890625 C-10.37265625 1.39992187 -9.5734375 1.51078125 -8.75 1.625 C-7.96109375 1.74101562 -7.1721875 1.85703125 -6.359375 1.9765625 C-3.67847541 2.00319395 -2.27305911 1.36592084 0 0 Z " fill="#E3E4E6" transform="translate(125,146)"/>
<path d="M0 0 C1.32 0 2.64 0 4 0 C5.125 4.75 5.125 4.75 4 7 C2.35 6.67 0.7 6.34 -1 6 C-1.625 4.125 -1.625 4.125 -2 2 C-1.34 1.34 -0.68 0.68 0 0 Z " fill="#4D515E" transform="translate(77,135)"/>
<path d="M0 0 C2.475 0.99 2.475 0.99 5 2 C4.67 3.32 4.34 4.64 4 6 C2.68 6.33 1.36 6.66 0 7 C-0.66 5.68 -1.32 4.36 -2 3 C-1.34 2.01 -0.68 1.02 0 0 Z " fill="#474B58" transform="translate(155,135)"/>
<path d="M0 0 C3.125 0.375 3.125 0.375 6 1 C6.33 1.99 6.66 2.98 7 4 C2.545 3.01 2.545 3.01 -2 2 C-1.34 1.34 -0.68 0.68 0 0 Z " fill="#CDCED2" transform="translate(122,151)"/>
</svg>
