<?xml version="1.0" encoding="UTF-8"?>
<svg version="1.1" xmlns="http://www.w3.org/2000/svg" width="534" height="310">
<path d="M0 0 C176.22 0 352.44 0 534 0 C534 102.3 534 204.6 534 310 C357.78 310 181.56 310 0 310 C0 207.7 0 105.4 0 0 Z " fill="#1C1C1C" transform="translate(0,0)"/>
<path d="M0 0 C0.72896484 -0.020625 1.45792969 -0.04125 2.20898438 -0.0625 C7.54846615 -0.10165294 7.54846615 -0.10165294 10.00390625 1.578125 C11.96793514 4.67998612 12.1855871 7.33851295 12.17602539 10.9050293 C12.17594986 11.84577805 12.17587433 12.78652679 12.17579651 13.75578308 C12.17063522 14.76836685 12.16547394 15.78095062 12.16015625 16.82421875 C12.1587413 17.86318802 12.15732635 18.90215729 12.15586853 19.97261047 C12.15026656 23.29426948 12.13771372 26.61586133 12.125 29.9375 C12.11998525 32.18815007 12.1154223 34.43880119 12.11132812 36.68945312 C12.10029649 42.20965837 12.08355643 47.72982439 12.0625 53.25 C13.35994141 53.00660889 13.35994141 53.00660889 14.68359375 52.75830078 C17.89265928 52.27554974 20.88384248 52.12077285 24.125 52.1171875 C25.25164062 52.11589844 26.37828125 52.11460938 27.5390625 52.11328125 C29.28316406 52.11908203 29.28316406 52.11908203 31.0625 52.125 C32.22523437 52.12113281 33.38796875 52.11726563 34.5859375 52.11328125 C35.71257812 52.11457031 36.83921875 52.11585937 38 52.1171875 C39.01964844 52.11831543 40.03929687 52.11944336 41.08984375 52.12060547 C44.15146192 52.25387236 47.05300479 52.68543933 50.0625 53.25 C50.05805878 52.6427861 50.05361755 52.0355722 50.04904175 51.40995789 C50.00485388 45.09990793 49.97465251 38.7899018 49.95263672 32.47973633 C49.94256845 30.12359838 49.92891294 27.76747296 49.91162109 25.41137695 C49.88740924 22.02812614 49.87602522 18.64504028 49.8671875 15.26171875 C49.85686493 14.20538742 49.84654236 13.14905609 49.83590698 12.06071472 C49.83575592 11.07992447 49.83560486 10.09913422 49.83544922 9.08862305 C49.831008 8.22480515 49.82656677 7.36098724 49.82199097 6.47099304 C50.0625 4.25 50.0625 4.25 52.0625 1.25 C55.61540564 0.06569812 58.86500456 0.06602142 62.5625 0.0625 C63.57763672 0.04413086 63.57763672 0.04413086 64.61328125 0.02539062 C68.32607044 0.01440604 69.89233076 0.13655384 73.0625 2.25 C75.9522547 9.36050479 76.79283528 17.2434331 77.6875 24.8125 C77.80867188 25.77607422 77.92984375 26.73964844 78.0546875 27.73242188 C78.40679738 30.57035098 78.7467223 33.40777479 79.0625 36.25 C79.18908997 37.30984352 79.18908997 37.30984352 79.3182373 38.39109802 C80.07380204 45.15291938 80.23923372 51.85211739 80.265625 58.65234375 C80.27132507 59.81069229 80.27702515 60.96904083 80.28289795 62.16249084 C80.29229269 64.5987966 80.29885977 67.03511475 80.30273438 69.47143555 C80.31246253 73.17324097 80.34354865 76.87449578 80.375 80.57617188 C80.38152951 82.95572591 80.38678018 85.33528386 80.390625 87.71484375 C80.4029718 88.80788315 80.4153186 89.90092255 80.42803955 91.02708435 C80.40114492 100.41894964 79.26127206 109.81147353 73.0625 117.25 C68.56649144 121.64145022 63.87413432 123.93826102 58.0625 126.25 C64.06611491 130.38885573 70.16986846 134.00228072 76.65625 137.34375 C79.0625 139.25 79.0625 139.25 80.0078125 142.26171875 C80.08374021 146.41062592 78.77579412 148.1796935 76.0625 151.25 C71.9855044 152.63879108 69.62733024 152.0185253 65.75 150.3125 C64.86699219 149.93222656 63.98398438 149.55195313 63.07421875 149.16015625 C62.41035156 148.85980469 61.74648437 148.55945313 61.0625 148.25 C61.2790625 149.57837891 61.2790625 149.57837891 61.5 150.93359375 C63.63535188 165.18410175 65.00608752 180.39574856 60.0625 194.25 C56.72852694 196.47264871 55.46735109 196.54675463 51.5625 196.5625 C50.6034375 196.57925781 49.644375 196.59601563 48.65625 196.61328125 C46.0625 196.25 46.0625 196.25 44.29296875 194.99609375 C42.8706745 192.97779048 42.36901903 191.41520417 41.875 189 C41.71644531 188.27296875 41.55789062 187.5459375 41.39453125 186.796875 C40.98289442 183.6393784 41.0625 180.43421571 41.0625 177.25 C34.4625 177.25 27.8625 177.25 21.0625 177.25 C20.93875 179.10625 20.815 180.9625 20.6875 182.875 C19.96861588 191.33187291 19.96861588 191.33187291 18.0625 195.25 C13.43967855 196.79094048 8.88539465 196.881658 4.0625 196.25 C-0.02725017 192.40811348 -0.75474675 184.89635002 -1.13110352 179.4465332 C-1.20527074 176.42025905 -1.21046118 173.40204876 -1.1875 170.375 C-1.19523437 169.36308594 -1.20296875 168.35117188 -1.2109375 167.30859375 C-1.19331241 160.42599797 -0.39339258 153.97396856 1.0625 147.25 C0.32644531 147.62253906 -0.40960938 147.99507812 -1.16796875 148.37890625 C-2.63169922 149.08853516 -2.63169922 149.08853516 -4.125 149.8125 C-5.08792969 150.28816406 -6.05085938 150.76382813 -7.04296875 151.25390625 C-10.24811268 152.356891 -11.75925406 152.32231254 -14.9375 151.25 C-18.03854472 148.25970688 -18.32465475 145.39805443 -18.9375 141.25 C-11.60591701 135.80509977 -4.03509207 131.42571754 4.0625 127.25 C3.32644531 126.87488281 2.59039062 126.49976563 1.83203125 126.11328125 C-7.64853958 121.14130421 -13.4328832 116.10474072 -17.125 106 C-23.10996536 78.37708295 -19.45266386 44.16790642 -15 16.625 C-14.84241211 15.64160645 -14.68482422 14.65821289 -14.52246094 13.64501953 C-13.69434284 8.97752025 -12.92777365 5.07567648 -9.9375 1.25 C-6.79239907 -0.32255046 -3.44984555 0.02427332 0 0 Z " fill="#1D1D1D" transform="translate(54.9375,60.75)"/>
<path d="M0 0 C0.72896484 -0.020625 1.45792969 -0.04125 2.20898438 -0.0625 C7.54846615 -0.10165294 7.54846615 -0.10165294 10.00390625 1.578125 C11.96793514 4.67998612 12.1855871 7.33851295 12.17602539 10.9050293 C12.17594986 11.84577805 12.17587433 12.78652679 12.17579651 13.75578308 C12.17063522 14.76836685 12.16547394 15.78095062 12.16015625 16.82421875 C12.1587413 17.86318802 12.15732635 18.90215729 12.15586853 19.97261047 C12.15026656 23.29426948 12.13771372 26.61586133 12.125 29.9375 C12.11998525 32.18815007 12.1154223 34.43880119 12.11132812 36.68945312 C12.10029649 42.20965837 12.08355643 47.72982439 12.0625 53.25 C13.35994141 53.00660889 13.35994141 53.00660889 14.68359375 52.75830078 C17.89265928 52.27554974 20.88384248 52.12077285 24.125 52.1171875 C25.25164062 52.11589844 26.37828125 52.11460938 27.5390625 52.11328125 C29.28316406 52.11908203 29.28316406 52.11908203 31.0625 52.125 C32.22523437 52.12113281 33.38796875 52.11726563 34.5859375 52.11328125 C35.71257812 52.11457031 36.83921875 52.11585937 38 52.1171875 C39.01964844 52.11831543 40.03929687 52.11944336 41.08984375 52.12060547 C44.15146192 52.25387236 47.05300479 52.68543933 50.0625 53.25 C50.05805878 52.6427861 50.05361755 52.0355722 50.04904175 51.40995789 C50.00485388 45.09990793 49.97465251 38.7899018 49.95263672 32.47973633 C49.94256845 30.12359838 49.92891294 27.76747296 49.91162109 25.41137695 C49.88740924 22.02812614 49.87602522 18.64504028 49.8671875 15.26171875 C49.85686493 14.20538742 49.84654236 13.14905609 49.83590698 12.06071472 C49.83575592 11.07992447 49.83560486 10.09913422 49.83544922 9.08862305 C49.831008 8.22480515 49.82656677 7.36098724 49.82199097 6.47099304 C50.0625 4.25 50.0625 4.25 52.0625 1.25 C55.61540564 0.06569812 58.86500456 0.06602142 62.5625 0.0625 C63.57763672 0.04413086 63.57763672 0.04413086 64.61328125 0.02539062 C68.32607044 0.01440604 69.89233076 0.13655384 73.0625 2.25 C75.9522547 9.36050479 76.79283528 17.2434331 77.6875 24.8125 C77.80867188 25.77607422 77.92984375 26.73964844 78.0546875 27.73242188 C78.40679738 30.57035098 78.7467223 33.40777479 79.0625 36.25 C79.18908997 37.30984352 79.18908997 37.30984352 79.3182373 38.39109802 C80.07380204 45.15291938 80.23923372 51.85211739 80.265625 58.65234375 C80.27132507 59.81069229 80.27702515 60.96904083 80.28289795 62.16249084 C80.29229269 64.5987966 80.29885977 67.03511475 80.30273438 69.47143555 C80.31246253 73.17324097 80.34354865 76.87449578 80.375 80.57617188 C80.38152951 82.95572591 80.38678018 85.33528386 80.390625 87.71484375 C80.4029718 88.80788315 80.4153186 89.90092255 80.42803955 91.02708435 C80.40114492 100.41894964 79.26127206 109.81147353 73.0625 117.25 C68.56649144 121.64145022 63.87413432 123.93826102 58.0625 126.25 C64.06611491 130.38885573 70.16986846 134.00228072 76.65625 137.34375 C79.0625 139.25 79.0625 139.25 80.0078125 142.26171875 C80.08374021 146.41062592 78.77579412 148.1796935 76.0625 151.25 C71.9855044 152.63879108 69.62733024 152.0185253 65.75 150.3125 C64.86699219 149.93222656 63.98398438 149.55195313 63.07421875 149.16015625 C62.41035156 148.85980469 61.74648437 148.55945313 61.0625 148.25 C61.2790625 149.57837891 61.2790625 149.57837891 61.5 150.93359375 C63.63535188 165.18410175 65.00608752 180.39574856 60.0625 194.25 C56.72852694 196.47264871 55.46735109 196.54675463 51.5625 196.5625 C50.6034375 196.57925781 49.644375 196.59601563 48.65625 196.61328125 C46.0625 196.25 46.0625 196.25 44.29296875 194.99609375 C42.8706745 192.97779048 42.36901903 191.41520417 41.875 189 C41.71644531 188.27296875 41.55789062 187.5459375 41.39453125 186.796875 C40.98289442 183.6393784 41.0625 180.43421571 41.0625 177.25 C34.4625 177.25 27.8625 177.25 21.0625 177.25 C20.93875 179.10625 20.815 180.9625 20.6875 182.875 C19.96861588 191.33187291 19.96861588 191.33187291 18.0625 195.25 C13.43967855 196.79094048 8.88539465 196.881658 4.0625 196.25 C-0.02725017 192.40811348 -0.75474675 184.89635002 -1.13110352 179.4465332 C-1.20527074 176.42025905 -1.21046118 173.40204876 -1.1875 170.375 C-1.19523437 169.36308594 -1.20296875 168.35117188 -1.2109375 167.30859375 C-1.19331241 160.42599797 -0.39339258 153.97396856 1.0625 147.25 C0.32644531 147.62253906 -0.40960938 147.99507812 -1.16796875 148.37890625 C-2.63169922 149.08853516 -2.63169922 149.08853516 -4.125 149.8125 C-5.08792969 150.28816406 -6.05085938 150.76382813 -7.04296875 151.25390625 C-10.24811268 152.356891 -11.75925406 152.32231254 -14.9375 151.25 C-18.03854472 148.25970688 -18.32465475 145.39805443 -18.9375 141.25 C-11.60591701 135.80509977 -4.03509207 131.42571754 4.0625 127.25 C3.32644531 126.87488281 2.59039062 126.49976563 1.83203125 126.11328125 C-7.64853958 121.14130421 -13.4328832 116.10474072 -17.125 106 C-23.10996536 78.37708295 -19.45266386 44.16790642 -15 16.625 C-14.84241211 15.64160645 -14.68482422 14.65821289 -14.52246094 13.64501953 C-13.69434284 8.97752025 -12.92777365 5.07567648 -9.9375 1.25 C-6.79239907 -0.32255046 -3.44984555 0.02427332 0 0 Z M-7.9375 3.25 C-10.73691101 9.88060495 -11.99013028 16.33841247 -13.0625 23.4375 C-13.23136719 24.48486328 -13.40023437 25.53222656 -13.57421875 26.61132812 C-15.82933583 41.07426403 -16.15101867 55.41537855 -16.17773438 70.02441406 C-16.1874791 73.24309767 -16.21860922 76.46115181 -16.25 79.6796875 C-16.83792296 98.59522576 -16.83792296 98.59522576 -9.25 115.3125 C-3.54855667 121.00350113 2.0943887 123.58599072 10.0625 124.25 C9.8056543 124.960354 9.54880859 125.67070801 9.28417969 126.40258789 C6.60361589 134.08209146 4.76468448 141.6913521 3.3125 149.6875 C3.09207031 150.81220703 2.87164062 151.93691406 2.64453125 153.09570312 C0.65619853 163.84628472 0.2118143 174.27213402 2.5 185 C2.63470703 185.69609375 2.76941406 186.3921875 2.90820312 187.109375 C3.37249498 190.46533292 3.37249498 190.46533292 5.0625 193.25 C6.91537502 193.32226502 8.77083878 193.3338122 10.625 193.3125 C11.63691406 193.30347656 12.64882812 193.29445312 13.69140625 193.28515625 C14.47386719 193.27355469 15.25632812 193.26195312 16.0625 193.25 C16.56583542 190.64643759 17.06529378 188.04223349 17.5625 185.4375 C17.70558594 184.69951172 17.84867188 183.96152344 17.99609375 183.20117188 C18.57176281 180.17205609 19.0625 177.340804 19.0625 174.25 C19.87332031 174.33378906 20.68414062 174.41757813 21.51953125 174.50390625 C28.86545675 175.17949195 35.74683886 175.20294183 43.0625 174.25 C43.11148438 175.11882812 43.16046875 175.98765625 43.2109375 176.8828125 C43.28570312 178.03523437 43.36046875 179.18765625 43.4375 180.375 C43.54191406 182.08042969 43.54191406 182.08042969 43.6484375 183.8203125 C44.05693876 187.20393616 44.87217569 190.06612441 46.0625 193.25 C49.6925 193.25 53.3225 193.25 57.0625 193.25 C64.66948237 170.42905288 58.9528468 146.49914244 52.0625 124.25 C53.0525 124.1675 54.0425 124.085 55.0625 124 C61.96119397 122.96868009 67.41774284 119.84735646 71.74609375 114.375 C76.82138899 106.18223855 78.20562979 97.01730109 78.265625 87.546875 C78.27254868 86.80388153 78.27947235 86.06088806 78.28660583 85.29537964 C78.30398493 82.86353314 78.31021264 80.43190598 78.3125 78 C78.31383942 77.16474792 78.31517883 76.32949585 78.31655884 75.46893311 C78.31233269 63.21981178 77.84254292 51.07541082 76.75 38.875 C76.69114624 38.19691284 76.63229248 37.51882568 76.57165527 36.82019043 C75.53232758 19.44740151 75.53232758 19.44740151 70.0625 3.25 C67.41659986 3.22315321 64.77096904 3.20323643 62.125 3.1875 C60.99288086 3.17493164 60.99288086 3.17493164 59.83789062 3.16210938 C57.91255687 3.15347559 55.98714419 3.19775667 54.0625 3.25 C52.8287802 4.26191638 52.8287802 4.26191638 52.94224548 6.34437561 C52.94446609 7.26592941 52.94668671 8.18748322 52.94897461 9.13696289 C52.94905014 10.17796646 52.94912567 11.21897003 52.94920349 12.29151917 C52.95436478 13.4237944 52.95952606 14.55606964 52.96484375 15.72265625 C52.9662587 16.87543564 52.96767365 18.02821503 52.96913147 19.21592712 C52.97474995 22.91481064 52.98730558 26.61363464 53 30.3125 C53.00501262 32.81315017 53.00957594 35.31380129 53.01367188 37.81445312 C53.02472538 43.95965588 53.04148148 50.10482369 53.0625 56.25 C51.88437744 56.08773926 50.70625488 55.92547852 49.49243164 55.75830078 C45.70755434 55.28679616 42.0013782 55.12100338 38.18359375 55.1171875 C36.93255859 55.11589844 35.68152344 55.11460938 34.39257812 55.11328125 C33.10802734 55.11714844 31.82347656 55.12101562 30.5 55.125 C28.56737305 55.11919922 28.56737305 55.11919922 26.59570312 55.11328125 C24.72108398 55.11521484 24.72108398 55.11521484 22.80859375 55.1171875 C21.11754517 55.11887939 21.11754517 55.11887939 19.39233398 55.12060547 C15.93114933 55.25510418 12.49148401 55.76014514 9.0625 56.25 C9.0625 39.09 9.0625 21.93 9.0625 4.25 C5.99716836 2.71733418 2.79495728 3.14723529 -0.5625 3.1875 C-1.62210938 3.19426758 -1.62210938 3.19426758 -2.703125 3.20117188 C-4.44795275 3.21296125 -6.192737 3.23089676 -7.9375 3.25 Z " fill="#D07EA0" transform="translate(54.9375,60.75)"/>
<path d="M0 0 C39.02941176 0 39.02941176 0 45.8125 5.125 C49.11665058 9.4675979 51.16793259 13.81452877 50.875 19.37109375 C49.48822859 26.71355308 46.06397365 31.62046348 40 36 C40.928125 36.680625 41.85625 37.36125 42.8125 38.0625 C47.20261179 41.80030745 48.76960071 45.51168772 49.29296875 51.1640625 C49.42745558 53.41227633 49.52957941 55.66274416 49.59375 57.9140625 C50.04416561 61.33548879 50.96596452 63.23809889 53 66 C53.99 66.495 53.99 66.495 55 67 C55 68.32 55 69.64 55 71 C45.71129707 71.30962343 45.71129707 71.30962343 43 69 C40.41430501 64.59474187 39.84281643 61.08392071 39.5625 56 C39.2116086 50.5095817 38.40300977 47.34829027 35 43 C31.59393969 41.30824582 28.69702517 40.72504387 24.91796875 40.5859375 C24.0777417 40.55032715 23.23751465 40.5147168 22.37182617 40.47802734 C20.79558472 40.42702881 20.79558472 40.42702881 19.1875 40.375 C15.825625 40.25125 12.46375 40.1275 9 40 C9 50.23 9 60.46 9 71 C6.03 71 3.06 71 0 71 C0 47.57 0 24.14 0 0 Z " fill="#E389AE" transform="translate(326,165)"/>
<path d="M0 0 C38.35135135 0 38.35135135 0 44.8125 5.3125 C49.51919087 11.09500593 50.61033763 15.64013663 50.41796875 23.0234375 C49.5980072 28.86278987 46.66321849 32.45848043 42.4375 36.375 C37.94735813 39.36842791 35.18536267 40.24703172 29.703125 40.1953125 C28.61676758 40.19031738 27.53041016 40.18532227 26.41113281 40.18017578 C25.03795898 40.16196777 23.66478516 40.14375977 22.25 40.125 C15.69125 40.063125 15.69125 40.063125 9 40 C9 49.9 9 59.8 9 70 C6.03 70 3.06 70 0 70 C0 46.9 0 23.8 0 0 Z " fill="#E78BB1" transform="translate(194,165)"/>
<path d="M0 0 C3.3 0 6.6 0 10 0 C13.10590865 5.97989669 15.69194589 12.03288838 18.1171875 18.31640625 C18.49682648 19.29052963 18.87646545 20.26465302 19.26760864 21.26829529 C20.47366695 24.36497957 21.67452417 27.46364787 22.875 30.5625 C24.0663018 33.62788751 25.25869103 36.69284965 26.45147705 39.75765991 C27.22313557 41.74106756 27.99394075 43.72480743 28.76385498 45.70889282 C31.44719389 52.61544709 34.19769017 59.49171727 37.00830078 66.34741211 C38 69 38 69 38 71 C34.7 71 31.4 71 28 71 C26.99580363 68.5433053 25.99649499 66.08481647 25 63.625 C24.57074219 62.57699219 24.57074219 62.57699219 24.1328125 61.5078125 C22 56.2265625 22 56.2265625 22 54 C10.78 54 -0.44 54 -12 54 C-12.99 57.3 -13.98 60.6 -15 64 C-17.51612903 69.51612903 -17.51612903 69.51612903 -19 71 C-21.67058851 71.14115161 -24.32432238 71.04247107 -27 71 C-26.37198333 65.09897838 -24.18746419 59.96849653 -21.9921875 54.51171875 C-21.58847931 53.49511673 -21.18477112 52.47851471 -20.76882935 51.43110657 C-19.47644294 48.18099272 -18.17573801 44.93427911 -16.875 41.6875 C-16.02291427 39.54643211 -15.17134674 37.40515792 -14.3203125 35.26367188 C-9.62833003 23.47524439 -4.86675936 11.71735033 0 0 Z " fill="#E489AF" transform="translate(277,165)"/>
<path d="M0 0 C1.051875 0.66 2.10375 1.32 3.1875 2 C4.074375 1.34 4.96125 0.68 5.875 0 C9.16861986 -1.98860067 10.47001873 -2.43735074 14.1875 -2 C15.9247036 1.22536752 16.25232258 2.68222036 15.5078125 6.33203125 C15.11335938 7.48058594 14.71890625 8.62914063 14.3125 9.8125 C13.92320312 10.97394531 13.53390625 12.13539062 13.1328125 13.33203125 C12.82085937 14.21246094 12.50890625 15.09289062 12.1875 16 C9 16.8125 9 16.8125 5.1875 17 C2.25 14.6875 2.25 14.6875 0.1875 12 C0.1875 11.34 0.1875 10.68 0.1875 10 C-2.5971088 8.6076956 -4.68723903 8.00521921 -7.8125 7.875 C-12.37900506 9.5874394 -13.7742214 12.72106053 -15.8125 17 C-18.70598425 23.66658771 -20.17878986 29.90113043 -17.8125 37 C-17.4825 37.66 -17.1525 38.32 -16.8125 39 C-14.5025 38.34 -12.1925 37.68 -9.8125 37 C-9.1525 34.36 -8.4925 31.72 -7.8125 29 C-9.4625 28.34 -11.1125 27.68 -12.8125 27 C-12.8125 25.35 -12.8125 23.7 -12.8125 22 C-3.5725 22 5.6675 22 15.1875 22 C14.1875 27 14.1875 27 11.7578125 28.83984375 C8.42720381 31.63897233 7.89066537 34.47294053 7.0625 38.5625 C5.2834994 46.92059742 5.2834994 46.92059742 2.1875 49 C-1.89044425 49.42478586 -3.34326119 49.31282587 -6.8125 47 C-7.4725 46.01 -8.1325 45.02 -8.8125 44 C-9.204375 44.45375 -9.59625 44.9075 -10 45.375 C-14.24025203 49.17660527 -18.82362711 49.4515969 -24.31640625 49.3046875 C-29.10315936 48.720389 -32.10557666 46.88426602 -35.31640625 43.33984375 C-39.17610805 37.98464495 -40.24624493 32.53168843 -39.8125 26 C-37.78920842 15.96636692 -34.36801773 6.94428451 -25.75390625 1.0078125 C-17.94500607 -3.04590228 -7.99640235 -4.01958193 0 0 Z " fill="#E58AB0" transform="translate(386.8125,90)"/>
<path d="M0 0 C2.05665945 -0.00961618 4.11228021 -0.04059412 6.16870117 -0.07226562 C22.66650525 -0.1369312 22.66650525 -0.1369312 29.02612305 5.42773438 C31.32301648 9.73440956 32.00226636 13.56881981 31.1550293 18.32226562 C29.47186551 23.78993433 26.49580423 27.41675179 21.52612305 30.24023438 C13.9613811 33.09994424 6.54439962 33.66640262 -1.47387695 33.24023438 C-2.35390049 37.33058378 -2.71146668 41.04281579 -2.47387695 45.24023438 C-1.81387695 45.90023437 -1.15387695 46.56023437 -0.47387695 47.24023438 C-0.47387695 48.23023438 -0.47387695 49.22023437 -0.47387695 50.24023438 C-3.53307083 51.25996567 -5.5980572 51.3555704 -8.7980957 51.33789062 C-10.34013672 51.33305664 -10.34013672 51.33305664 -11.91333008 51.328125 C-12.98518555 51.31974609 -14.05704102 51.31136719 -15.16137695 51.30273438 C-16.24483398 51.29822266 -17.32829102 51.29371094 -18.44458008 51.2890625 C-21.1210678 51.27727181 -23.79744472 51.26081501 -26.47387695 51.24023438 C-26.80387695 49.59023437 -27.13387695 47.94023437 -27.47387695 46.24023438 C-26.48387695 45.58023438 -25.49387695 44.92023438 -24.47387695 44.24023438 C-23.51209615 41.79072514 -22.71950456 39.44288691 -21.9934082 36.92382812 C-21.7756926 36.19333755 -21.55797699 35.46284698 -21.33366394 34.71022034 C-20.87530518 33.16088874 -20.42259267 31.60987727 -19.97509766 30.05737305 C-19.29455171 27.70597945 -18.58975387 25.36288247 -17.88208008 23.01953125 C-17.43852632 21.50890213 -16.99642386 19.99784598 -16.5559082 18.48632812 C-16.34658157 17.79534531 -16.13725494 17.10436249 -15.92158508 16.3924408 C-14.45972134 11.22424228 -14.29854762 6.60899615 -14.47387695 1.24023438 C-10.22817018 -0.88261901 -4.66954478 0.01319546 0 0 Z " fill="#E389AF" transform="translate(194.473876953125,87.759765625)"/>
<path d="M0 0 C4.52652642 3.50805798 5.2864873 8.56979284 6 14 C6.43344058 18.99702186 6.74917625 23.99012555 7 29 C10.66097025 27.77144737 10.66097025 27.77144737 13.375 25.1875 C14.3515211 21.76967615 13.65683134 19.20586212 11.9765625 16.12109375 C10.30483793 12.49010798 10.45038963 8.9098864 11 5 C12.5625 1.9375 12.5625 1.9375 15 0 C18.5625 -0.5625 18.5625 -0.5625 22 0 C24.9797644 2.88043892 25.87687023 5.84258012 26.3125 9.9375 C26.08516726 21.91035778 18.78707455 33.62989284 10.90234375 42.1875 C3.89871738 48.86035962 -5.55299555 54.01206478 -15.375 54.4375 C-20.10912634 53.86613992 -22.48571429 52.51428571 -25.8125 49.1875 C-27.41312486 46.23898052 -27.41384197 44.31073574 -27 41 C-25.875 38.625 -25.875 38.625 -24 37 C-21.125 36.4375 -21.125 36.4375 -18 37 C-14.89835231 39.55024365 -13.27433584 41.17699247 -12 45 C-8.39007621 44.34414811 -8.39007621 44.34414811 -5 43 C-5.763125 42.5875 -6.52625 42.175 -7.3125 41.75 C-14.02230814 34.88414981 -13.85261854 22.1250573 -15 13 C-16.32 13 -17.64 13 -19 13 C-18.72387317 9.04218214 -18.25946652 7.30043492 -15.625 4.25 C-10.42585735 -0.20640799 -6.71540969 -1.03653286 0 0 Z " fill="#E68AB0" transform="translate(318,99)"/>
<path d="M0 0 C0.72832031 -0.01015137 1.45664062 -0.02030273 2.20703125 -0.03076172 C7.73283904 0.05856714 11.83552713 1.33586728 16.1875 4.9375 C19.24948075 8.80526516 18.88254812 13.7772854 18.375 18.4375 C17.2426781 22.84317169 15.86284094 27.14003085 14.375 31.4375 C15.695 30.7775 17.015 30.1175 18.375 29.4375 C17.76973684 34.88486842 17.76973684 34.88486842 16.125 37.1875 C11.48371399 40.50270429 7.95871091 40.55984188 2.4609375 39.921875 C0.375 39.4375 0.375 39.4375 -2.625 37.4375 C-2.625 36.7775 -2.625 36.1175 -2.625 35.4375 C-3.58599609 35.97890625 -3.58599609 35.97890625 -4.56640625 36.53125 C-13.74431015 41.4553117 -13.74431015 41.4553117 -19.625 40.4375 C-22.70693978 38.8093054 -24.88920667 37.40740938 -27 34.625 C-28.21836757 30.3607135 -28.19921095 26.76725167 -26.4375 22.6875 C-23.38361561 18.8964711 -20.7572531 17.67175926 -16 16.6875 C-10.84394876 16.18374787 -5.74866076 16.82529789 -0.625 17.4375 C0.91879132 13.7537378 1.82183414 10.40185532 2.375 6.4375 C1.055 6.1075 -0.265 5.7775 -1.625 5.4375 C-1.7075 6.55125 -1.79 7.665 -1.875 8.8125 C-2.625 12.4375 -2.625 12.4375 -4.25 13.875 C-7.5541264 14.65755625 -10.24009505 14.80016839 -13.625 14.4375 C-16.125 12.8125 -16.125 12.8125 -17.625 10.4375 C-17.875 7.4375 -17.875 7.4375 -16.625 4.4375 C-11.40184029 0.30249856 -6.44152301 0.06491243 0 0 Z " fill="#E58AB0" transform="translate(274.625,98.5625)"/>
<path d="M0 0 C2.75014092 2.02515823 2.96284015 2.75846096 3.5 6.25 C3.28549539 11.64186595 1.27862346 16.53491453 -0.484375 21.578125 C-2.2495093 26.65815342 -3.83896396 31.78404027 -5.375 36.9375 C-5.64973145 37.81301514 -5.92446289 38.68853027 -6.20751953 39.59057617 C-7.85475687 45.19150341 -8.13078972 49.25957926 -7 55 C-9.94131891 55.98043964 -11.82501665 56.11621202 -14.88671875 56.09765625 C-15.82451172 56.09443359 -16.76230469 56.09121094 -17.72851562 56.08789062 C-19.19321289 56.07532227 -19.19321289 56.07532227 -20.6875 56.0625 C-22.16959961 56.05573242 -22.16959961 56.05573242 -23.68164062 56.04882812 C-26.12115474 56.03704303 -28.56054689 56.02059011 -31 56 C-31.6875 54.1875 -31.6875 54.1875 -32 52 C-31.00020331 50.99979674 -30.00017517 49.9998248 -29 49 C-28.11988028 47.13021082 -28.11988028 47.13021082 -27.52612305 45.03515625 C-27.27964523 44.24423584 -27.03316742 43.45331543 -26.77922058 42.63842773 C-26.52594498 41.78837158 -26.27266937 40.93831543 -26.01171875 40.0625 C-25.74486771 39.18601807 -25.47801666 38.30953613 -25.20307922 37.40649414 C-24.64280379 35.55534091 -24.08751432 33.7026723 -23.53686523 31.84863281 C-22.68919146 29.00567289 -21.81730555 26.17091564 -20.94335938 23.3359375 C-20.4021619 21.53690407 -19.86239891 19.73743836 -19.32421875 17.9375 C-19.06082199 17.08744385 -18.79742523 16.2373877 -18.52604675 15.36157227 C-18.29532974 14.57065186 -18.06461273 13.77973145 -17.8269043 12.96484375 C-17.61833298 12.2699585 -17.40976166 11.57507324 -17.19487 10.85913086 C-16.76453722 8.66157642 -16.76453722 8.66157642 -19 6 C-19 5.01 -19 4.02 -19 3 C-12.76727418 0.17763359 -6.85989029 -1.1303858 0 0 Z " fill="#E48AAF" transform="translate(249,83)"/>
<path d="M0 0 C2.87592423 5.60805225 -0.82934515 13.71311938 -2.5 19.4375 C-2.76369385 20.35724609 -3.0273877 21.27699219 -3.29907227 22.22460938 C-5.27797849 29.04605045 -7.51080291 35.74206571 -9.96484375 42.40625 C-10.79754278 45.62104826 -10.6191381 47.28485001 -9.75 50.4375 C-9.75 51.4275 -9.75 52.4175 -9.75 53.4375 C-12.69131891 54.41793964 -14.57501665 54.55371202 -17.63671875 54.53515625 C-18.57451172 54.53193359 -19.51230469 54.52871094 -20.47851562 54.52539062 C-21.94321289 54.51282227 -21.94321289 54.51282227 -23.4375 54.5 C-24.91959961 54.49323242 -24.91959961 54.49323242 -26.43164062 54.48632812 C-28.87115474 54.47454303 -31.31054689 54.45809011 -33.75 54.4375 C-34.08 53.1175 -34.41 51.7975 -34.75 50.4375 C-33.265 49.9425 -33.265 49.9425 -31.75 49.4375 C-30.89408422 47.46000526 -30.89408422 47.46000526 -30.38671875 44.94921875 C-29.15015519 39.96343965 -27.76975311 35.05554576 -26.26953125 30.14453125 C-26.05005829 29.42184052 -25.83058533 28.69914978 -25.60446167 27.95455933 C-24.92526735 25.71925925 -24.2439253 23.48462085 -23.5625 21.25 C-23.09425741 19.71033013 -22.62615743 18.17061689 -22.15820312 16.63085938 C-21.02377654 12.89923817 -19.88743005 9.16820676 -18.75 5.4375 C-19.41 5.4375 -20.07 5.4375 -20.75 5.4375 C-20.42 3.7875 -20.09 2.1375 -19.75 0.4375 C-13.6600369 -2.19599756 -5.94186125 -3.37605753 0 0 Z " fill="#E48AAF" transform="translate(502.75,84.5625)"/>
<path d="M0 0 C0.72896484 -0.020625 1.45792969 -0.04125 2.20898438 -0.0625 C7.54846615 -0.10165294 7.54846615 -0.10165294 10.00390625 1.578125 C11.96793514 4.67998612 12.1855871 7.33851295 12.17602539 10.9050293 C12.17594986 11.84577805 12.17587433 12.78652679 12.17579651 13.75578308 C12.17063522 14.76836685 12.16547394 15.78095062 12.16015625 16.82421875 C12.1587413 17.86318802 12.15732635 18.90215729 12.15586853 19.97261047 C12.15026656 23.29426948 12.13771372 26.61586133 12.125 29.9375 C12.11998525 32.18815007 12.1154223 34.43880119 12.11132812 36.68945312 C12.10029649 42.20965837 12.08355643 47.72982439 12.0625 53.25 C13.35994141 53.00660889 13.35994141 53.00660889 14.68359375 52.75830078 C17.89265928 52.27554974 20.88384248 52.12077285 24.125 52.1171875 C25.25164062 52.11589844 26.37828125 52.11460938 27.5390625 52.11328125 C29.28316406 52.11908203 29.28316406 52.11908203 31.0625 52.125 C32.22523437 52.12113281 33.38796875 52.11726563 34.5859375 52.11328125 C35.71257812 52.11457031 36.83921875 52.11585937 38 52.1171875 C39.01964844 52.11831543 40.03929687 52.11944336 41.08984375 52.12060547 C44.15146192 52.25387236 47.05300479 52.68543933 50.0625 53.25 C50.05805878 52.6427861 50.05361755 52.0355722 50.04904175 51.40995789 C50.00485388 45.09990793 49.97465251 38.7899018 49.95263672 32.47973633 C49.94256845 30.12359838 49.92891294 27.76747296 49.91162109 25.41137695 C49.88740924 22.02812614 49.87602522 18.64504028 49.8671875 15.26171875 C49.85686493 14.20538742 49.84654236 13.14905609 49.83590698 12.06071472 C49.83575592 11.07992447 49.83560486 10.09913422 49.83544922 9.08862305 C49.831008 8.22480515 49.82656677 7.36098724 49.82199097 6.47099304 C50.0625 4.25 50.0625 4.25 52.0625 1.25 C55.61540564 0.06569812 58.86500456 0.06602142 62.5625 0.0625 C63.57763672 0.04413086 63.57763672 0.04413086 64.61328125 0.02539062 C68.32607044 0.01440604 69.89233076 0.13655384 73.0625 2.25 C75.9522547 9.36050479 76.79283528 17.2434331 77.6875 24.8125 C77.80867188 25.77607422 77.92984375 26.73964844 78.0546875 27.73242188 C78.40679738 30.57035098 78.7467223 33.40777479 79.0625 36.25 C79.19092537 37.314534 79.19092537 37.314534 79.32194519 38.40057373 C80.07364555 45.07740478 80.19272871 51.66831048 80.16015625 58.3828125 C80.1587413 59.50066132 80.15732635 60.61851013 80.15586853 61.77023315 C80.15031622 65.30518383 80.13777279 68.84006879 80.125 72.375 C80.11997883 74.78645741 80.11541701 77.19791583 80.11132812 79.609375 C80.10036246 85.48960537 80.08367253 91.36979799 80.0625 97.25 C78.5775 97.745 78.5775 97.745 77.0625 98.25 C77.07821045 97.18604004 77.0939209 96.12208008 77.11010742 95.02587891 C77.36239088 76.20188729 77.45554823 57.45042285 75.75 38.6875 C75.6910556 38.01527405 75.63211121 37.3430481 75.57138062 36.65045166 C74.60878896 25.93640241 73.48453556 14.51610669 70.0625 4.25 C64.7825 4.25 59.5025 4.25 54.0625 4.25 C53.7325 21.41 53.4025 38.57 53.0625 56.25 C38.5425 56.25 24.0225 56.25 9.0625 56.25 C9.0625 39.09 9.0625 21.93 9.0625 4.25 C3.4525 4.25 -2.1575 4.25 -7.9375 4.25 C-13.02191787 26.28247745 -15.13636764 47.39186473 -15.17773438 69.96948242 C-15.18746869 73.17718161 -15.21859432 76.38424638 -15.25 79.59179688 C-15.30474027 90.54716991 -15.03229622 100.65510751 -11.9375 111.25 C-12.9275 111.25 -13.9175 111.25 -14.9375 111.25 C-25.39300376 84.61805647 -19.43722476 44.07240457 -15 16.625 C-14.84241211 15.64160645 -14.68482422 14.65821289 -14.52246094 13.64501953 C-13.69434284 8.97752025 -12.92777365 5.07567648 -9.9375 1.25 C-6.79239907 -0.32255046 -3.44984555 0.02427332 0 0 Z " fill="#CE7D9F" transform="translate(54.9375,60.75)"/>
<path d="M0 0 C3.63 0 7.26 0 11 0 C11.43344727 0.78648926 11.86689453 1.57297852 12.31347656 2.38330078 C13.9365456 5.32538451 15.56197095 8.2661409 17.18896484 11.20605469 C17.89009609 12.47409233 18.59030856 13.74263846 19.28955078 15.01171875 C20.29994224 16.84512522 21.3137215 18.67662346 22.328125 20.5078125 C23.23933105 22.15740967 23.23933105 22.15740967 24.16894531 23.84033203 C25.99758157 26.99582676 27.94520713 29.98921277 30 33 C30.3623877 32.35562988 30.72477539 31.71125977 31.09814453 31.04736328 C32.77231363 28.07242391 34.44864494 25.09870811 36.125 22.125 C36.69476563 21.11179688 37.26453125 20.09859375 37.8515625 19.0546875 C38.99612149 17.02569656 40.14732359 15.00043851 41.30517578 12.97900391 C42.42549565 11.00981015 43.52337138 9.02765885 44.59716797 7.03271484 C45.10135254 6.12473145 45.60553711 5.21674805 46.125 4.28125 C46.56328125 3.46978516 47.0015625 2.65832031 47.453125 1.82226562 C49 0 49 0 51.46923828 -0.59716797 C53.73687367 -0.62340203 55.77906644 -0.44418671 58 0 C57.67 1.65 57.34 3.3 57 5 C56.34 5 55.68 5 55 5 C54.855625 5.78375 54.71125 6.5675 54.5625 7.375 C54 10 54 10 53 12 C52.34 12 51.68 12 51 12 C50.90396484 12.71792725 50.80792969 13.43585449 50.70898438 14.17553711 C49.88962606 17.43970941 48.57780611 19.43481655 46.65625 22.19140625 C35.68108803 38.82252041 32.62697981 50.74164868 34 71 C31.03 71 28.06 71 25 71 C25.06453369 69.92407593 25.06453369 69.92407593 25.13037109 68.82641602 C26.03066989 49.49150074 22.44017213 36.89338272 11.83154297 20.80322266 C9.1029966 16.6271137 6.62460766 12.31531227 4.125 8 C3.31587017 6.6453755 2.50606122 5.29115621 1.6953125 3.9375 C0 1 0 1 0 0 Z " fill="#E389AE" transform="translate(445,165)"/>
<path d="M0 0 C17.82 0 35.64 0 54 0 C54 2.64 54 5.28 54 8 C46.74 8 39.48 8 32 8 C32.00523682 9.87292725 32.01047363 11.74585449 32.01586914 13.67553711 C32.03196688 19.85021346 32.04347233 26.02488486 32.05181217 32.19957638 C32.05704014 35.94483037 32.06413622 39.69006176 32.07543945 43.43530273 C32.08627141 47.04681687 32.09227749 50.65830921 32.09487724 54.26983833 C32.09673094 55.65060329 32.10035049 57.031367 32.10573006 58.41212273 C32.11294447 60.33975952 32.11340809 62.26741807 32.11352539 64.19506836 C32.115746 65.29427109 32.11796661 66.39347382 32.12025452 67.52598572 C32 70 32 70 31 71 C28.03 71 25.06 71 22 71 C22 50.21 22 29.42 22 8 C14.74 8 7.48 8 0 8 C0 5.36 0 2.72 0 0 Z " fill="#DC85A9" transform="translate(388,165)"/>
<path d="M0 0 C0.66 1.32 1.32 2.64 2 4 C2.99 3.34 3.98 2.68 5 2 C9.25390299 -0.41600981 12.15147518 -0.63587211 17 0 C19.43119623 1.87015094 20.64069173 3.28138345 22 6 C22.40820726 9.67386532 22.24841035 11.55286137 20.4375 14.8125 C17.24762034 17.67521252 15.25801359 18.07603596 11 18 C8.26736501 15.93206001 6.90571371 13.85857056 5 11 C4.34 11 3.68 11 3 11 C2.18525038 13.8952173 1.37312678 16.79112828 0.5625 19.6875 C0.33240234 20.50412109 0.10230469 21.32074219 -0.13476562 22.16210938 C-1.86338561 28.01911881 -1.86338561 28.01911881 -3 34 C-1.62485459 35.7087646 -1.62485459 35.7087646 0 37 C0 37.66 0 38.32 0 39 C-3.05919388 40.01973129 -5.12418025 40.11533602 -8.32421875 40.09765625 C-9.86625977 40.09282227 -9.86625977 40.09282227 -11.43945312 40.08789062 C-12.51130859 40.07951172 -13.58316406 40.07113281 -14.6875 40.0625 C-15.77095703 40.05798828 -16.85441406 40.05347656 -17.97070312 40.04882812 C-20.64719085 40.03703743 -23.32356777 40.02058063 -26 40 C-26.6875 38.1875 -26.6875 38.1875 -27 36 C-25.67871094 34.55151367 -25.67871094 34.55151367 -24 33 C-22.45381468 29.54375436 -21.3935207 25.91953134 -20.25 22.3125 C-19.92128906 21.34376953 -19.59257812 20.37503906 -19.25390625 19.37695312 C-17.34239487 13.41255368 -16.68752983 9.14673532 -18 3 C-12.27544841 -0.81636773 -6.70250505 -0.29282789 0 0 Z " fill="#E489AF" transform="translate(452,99)"/>
<path d="M0 0 C10.56 0 21.12 0 32 0 C32.144375 3.83625 32.28875 7.6725 32.4375 11.625 C32.53309204 13.42251709 32.53309204 13.42251709 32.63061523 15.25634766 C32.76981435 22.89626214 32.76981435 22.89626214 30.55126953 26.07714844 C25.07207105 30.97258184 19.83364882 31.30043654 12.69140625 31.21484375 C8.03862239 30.8434314 5.2981583 29.13500179 1.85546875 26.125 C-1.00446855 21.30826349 -0.42276903 16.66832982 -0.25 11.1875 C-0.1675 7.495625 -0.085 3.80375 0 0 Z " fill="#E68AB0" transform="translate(70,193)"/>
<path d="M0 0 C1.859375 1.23046875 1.859375 1.23046875 3 3 C3.8502138 10.26667109 1.06910252 17.64930825 -1.27148438 24.4284668 C-2.51922997 28.09758459 -3.25948962 31.12761649 -3 35 C-3 36.32 -3 37.64 -3 39 C-5.42891182 40.21445591 -7.00719443 40.12924198 -9.71875 40.1328125 C-10.65074219 40.13410156 -11.58273437 40.13539063 -12.54296875 40.13671875 C-13.51878906 40.13285156 -14.49460937 40.12898438 -15.5 40.125 C-16.96373047 40.13080078 -16.96373047 40.13080078 -18.45703125 40.13671875 C-19.85501953 40.13478516 -19.85501953 40.13478516 -21.28125 40.1328125 C-22.13783203 40.13168457 -22.99441406 40.13055664 -23.87695312 40.12939453 C-26 40 -26 40 -28 39 C-28 38.01 -28 37.02 -28 36 C-27.11054688 35.22462891 -27.11054688 35.22462891 -26.203125 34.43359375 C-22.91964546 30.80662965 -22.05754909 26.70896909 -20.75 22.0625 C-20.481875 21.16853516 -20.21375 20.27457031 -19.9375 19.35351562 C-18.26364885 13.60178731 -17.25813545 8.87879286 -19 3 C-12.92398424 -0.31419041 -6.87217511 -1.02479804 0 0 Z " fill="#E389AE" transform="translate(425,99)"/>
<path d="M0 0 C6.0328125 -0.0928125 6.0328125 -0.0928125 12.1875 -0.1875 C14.07698364 -0.22846802 14.07698364 -0.22846802 16.00463867 -0.27026367 C17.50861206 -0.28150269 17.50861206 -0.28150269 19.04296875 -0.29296875 C20.06414795 -0.3086792 21.08532715 -0.32438965 22.13745117 -0.34057617 C25.48707631 0.05795066 27.30316765 1.00170773 30 3 C32.69203283 7.03804924 32.67314273 10.25556024 32 15 C30.1875 18.375 30.1875 18.375 28 21 C27.505 21.598125 27.01 22.19625 26.5 22.8125 C23.41788391 25.25250857 19.80810791 25.12078115 16.015625 25.09765625 C15.17290039 25.09515869 14.33017578 25.09266113 13.46191406 25.09008789 C12.40198242 25.08098389 11.34205078 25.07187988 10.25 25.0625 C6.8675 25.041875 3.485 25.02125 0 25 C0 16.75 0 8.5 0 0 Z " fill="#201E1F" transform="translate(335,173)"/>
<path d="M0 0 C5.754375 -0.12375 5.754375 -0.12375 11.625 -0.25 C12.82334473 -0.28641602 14.02168945 -0.32283203 15.25634766 -0.36035156 C21.48801716 -0.42523208 25.30477539 -0.25901286 30 4 C32.59076756 7.41510269 32.35933413 10.83172404 32 15 C30.53434556 19.15268759 28.75801077 21.79475763 25.01513672 24.19067383 C20.6282294 25.9525587 15.77053266 25.39760163 11.125 25.25 C7.45375 25.1675 3.7825 25.085 0 25 C0 16.75 0 8.5 0 0 Z " fill="#1D1D1D" transform="translate(203,173)"/>
<path d="M0 0 C0.99 0 1.98 0 3 0 C4.32421875 1.390625 4.32421875 1.390625 5.6875 3.25 C10.50381537 9.15117849 16.79729381 11.19932345 24 13 C23.01537227 18.23590273 21.91682658 23.40893097 20.5625 28.5625 C16.65034735 44.29095044 15.5810346 58.79355897 16 75 C14 74 14 74 13 71 C12.76521743 67.17087377 12.81481058 63.3355582 12.8125 59.5 C12.80025391 58.46101563 12.78800781 57.42203125 12.77539062 56.3515625 C12.76230795 49.35669166 13.50322613 42.83173389 15 36 C14.26394531 36.37253906 13.52789062 36.74507812 12.76953125 37.12890625 C11.79371094 37.60199219 10.81789063 38.07507813 9.8125 38.5625 C8.36810547 39.27599609 8.36810547 39.27599609 6.89453125 40.00390625 C3.68938732 41.106891 2.17824594 41.07231254 -1 40 C-4.10104472 37.00970688 -4.38715475 34.14805443 -5 30 C2.33158299 24.55509977 9.90240793 20.17571754 18 16 C16.89591797 15.43732422 16.89591797 15.43732422 15.76953125 14.86328125 C2.48106471 7.89429682 2.48106471 7.89429682 0 0 Z " fill="#D07EA0" transform="translate(41,172)"/>
<path d="M0 0 C2 2 2 2 2.23046875 5.7890625 C2.22844357 7.40110403 2.2132743 9.01316326 2.1875 10.625 C2.1781543 11.46933594 2.16880859 12.31367187 2.15917969 13.18359375 C2.12108607 15.78958767 2.0626941 18.39449241 2 21 C1.98598145 21.79631836 1.97196289 22.59263672 1.95751953 23.41308594 C1.91223065 25.6102968 1.83737465 27.80410326 1.75 30 C1.68039063 31.918125 1.68039063 31.918125 1.609375 33.875 C1 37 1 37 -0.85546875 38.91796875 C-3.74172315 40.37423919 -5.80874057 40.33949568 -9 40 C-9.99 39.34 -10.98 38.68 -12 38 C-12.35644531 35.76025391 -12.35644531 35.76025391 -12.328125 32.9765625 C-12.32393555 31.96037842 -12.31974609 30.94419434 -12.31542969 29.8972168 C-12.29383789 28.81738525 -12.27224609 27.73755371 -12.25 26.625 C-12.23614258 25.53550049 -12.22228516 24.44600098 -12.20800781 23.32348633 C-12.15872667 20.21482226 -12.08435314 17.10788591 -12 14 C-11.98453125 13.25508301 -11.9690625 12.51016602 -11.953125 11.74267578 C-11.73003426 2.72376787 -11.73003426 2.72376787 -9.1796875 0.1953125 C-5.89753953 -1.6045751 -3.54430742 -0.85325919 0 0 Z " fill="#E489AF" transform="translate(58,75)"/>
<path d="M0 0 C2.28143035 7.07152516 2.33955019 13.91643837 2.31567383 21.31103516 C2.31247468 23.39146524 2.33617355 25.47052232 2.36132812 27.55078125 C2.36197266 28.86175781 2.36261719 30.17273438 2.36328125 31.5234375 C2.36775269 33.316604 2.36775269 33.316604 2.37231445 35.14599609 C2.24945068 36.08781738 2.12658691 37.02963867 2 38 C-1.71499122 40.47666082 -3.60907888 40.54886514 -8 40 C-11.87781585 35.60694987 -11.55293757 30.49581247 -11.6875 24.9375 C-11.71730957 24.00244629 -11.74711914 23.06739258 -11.77783203 22.10400391 C-11.83409225 20.2480598 -11.88437874 18.39192345 -11.92822266 16.53564453 C-11.98938068 14.37514364 -12.1043011 12.21627448 -12.23046875 10.05859375 C-12.27816406 9.00800781 -12.32585937 7.95742187 -12.375 6.875 C-12.42398438 5.98554687 -12.47296875 5.09609375 -12.5234375 4.1796875 C-12 2 -12 2 -9.71484375 0.17578125 C-6.14065552 -1.37217653 -3.74534252 -0.80781897 0 0 Z " fill="#E389AE" transform="translate(124,75)"/>
<path d="M0 0 C0.66 0 1.32 0 2 0 C3.85574144 4.66137345 5.70703891 9.32447725 7.55419922 13.98925781 C8.18350652 15.57665868 8.81403596 17.16357559 9.44580078 18.75 C10.35248681 21.02739033 11.25479598 23.30647201 12.15625 25.5859375 C12.44060913 26.29744965 12.72496826 27.00896179 13.01794434 27.74203491 C15 32.77225659 15 32.77225659 15 35 C5.76 35 -3.48 35 -13 35 C-10.60029692 27.20096498 -8.63464263 20.86237568 -5.23828125 13.72265625 C-3.20622116 9.25468816 -1.60488135 4.6353277 0 0 Z " fill="#1F1E1E" transform="translate(281,177)"/>
<path d="M0 0 C1.01513672 -0.01836914 1.01513672 -0.01836914 2.05078125 -0.03710938 C5.76357044 -0.04809396 7.32983076 0.07405384 10.5 2.1875 C13.3897547 9.29800479 14.23033528 17.1809331 15.125 24.75 C15.24617188 25.71357422 15.36734375 26.67714844 15.4921875 27.66992188 C15.84429738 30.50785098 16.1842223 33.34527479 16.5 36.1875 C16.58561691 36.89718933 16.67123383 37.60687866 16.75944519 38.33807373 C17.51114555 45.01490478 17.63022871 51.60581048 17.59765625 58.3203125 C17.5962413 59.43816132 17.59482635 60.55601013 17.59336853 61.70773315 C17.58781622 65.24268383 17.57527279 68.77756879 17.5625 72.3125 C17.55747883 74.72395741 17.55291701 77.13541583 17.54882812 79.546875 C17.53786246 85.42710537 17.52117253 91.30729799 17.5 97.1875 C16.015 97.6825 16.015 97.6825 14.5 98.1875 C14.51571045 97.12354004 14.5314209 96.05958008 14.54760742 94.96337891 C14.79989088 76.13938729 14.89304823 57.38792285 13.1875 38.625 C13.0990834 37.61666107 13.0990834 37.61666107 13.00888062 36.58795166 C12.04628896 25.87390241 10.92203556 14.45360669 7.5 4.1875 C1.23 4.1875 -5.04 4.1875 -11.5 4.1875 C-11.17 3.1975 -10.84 2.2075 -10.5 1.1875 C-6.94709436 0.00319812 -3.69749544 0.00352142 0 0 Z " fill="#D682A5" transform="translate(117.5,60.8125)"/>
<path d="M0 0 C0.33 0 0.66 0 1 0 C1.10482527 5.15973265 1.01173443 10.22890981 0.51171875 15.3671875 C-0.23765157 24.80551004 -0.22289537 34.25599754 -0.24023438 43.71948242 C-0.24996869 46.92718161 -0.28109432 50.13424638 -0.3125 53.34179688 C-0.36724027 64.29716991 -0.09479622 74.40510751 3 85 C2.01 85 1.02 85 0 85 C-4.30261839 74.04050032 -4.19521117 62.89540875 -4.1875 51.25 C-4.18669434 49.96754395 -4.18588867 48.68508789 -4.18505859 47.36376953 C-4.14086706 37.51582214 -3.73303573 27.70323542 -3.125 17.875 C-3.08579437 17.20279419 -3.04658875 16.53058838 -3.00619507 15.8380127 C-2.89210907 13.93042216 -2.76278353 12.0237616 -2.6328125 10.1171875 C-2.55949707 9.03034668 -2.48618164 7.94350586 -2.41064453 6.82373047 C-2.01695282 4.11657331 -1.38599315 2.33441551 0 0 Z " fill="#D581A4" transform="translate(40,87)"/>
<path d="M0 0 C0.66 0.33 1.32 0.66 2 1 C-0.25281466 12.48262993 -0.25281466 12.48262993 -4.31640625 16.01171875 C-7.93083709 17.89165372 -10.5715968 19.11195032 -14.69140625 18.7890625 C-17 18 -17 18 -19 15 C-18.86132812 12.97143555 -18.86132812 12.97143555 -18 11 C-16.34179688 9.64379883 -16.34179688 9.64379883 -14.21875 8.45703125 C-13.45949219 8.02326172 -12.70023438 7.58949219 -11.91796875 7.14257812 C-11.12003906 6.70365234 -10.32210937 6.26472656 -9.5 5.8125 C-7.92655982 4.92410365 -6.35361627 4.03482693 -4.78125 3.14453125 C-4.08064453 2.75628174 -3.38003906 2.36803223 -2.65820312 1.96801758 C-1.02272775 1.10745263 -1.02272775 1.10745263 0 0 Z " fill="#211F20" transform="translate(58,191)"/>
<path d="M0 0 C0.66 0 1.32 0 2 0 C2 0.66 2 1.32 2 2 C2.85851562 2.25523437 3.71703125 2.51046875 4.6015625 2.7734375 C8.15732514 4.05678172 11.13692247 5.68215348 14.375 7.625 C15.43460938 8.25664062 16.49421875 8.88828125 17.5859375 9.5390625 C18.38257813 10.02117187 19.17921875 10.50328125 20 11 C19.45276317 14.37462715 18.9451 16.08235 17 19 C15.6016978 18.57045619 14.20646093 18.13092966 12.8125 17.6875 C12.03519531 17.44386719 11.25789063 17.20023438 10.45703125 16.94921875 C7.61685663 15.85198118 5.40907342 14.88819268 3 13 C1.85546875 9.86328125 1.85546875 9.86328125 1.1875 6.3125 C0.95417969 5.13300781 0.72085938 3.95351562 0.48046875 2.73828125 C0.32191406 1.83464844 0.16335937 0.93101562 0 0 Z " fill="#1D1C1D" transform="translate(112,191)"/>
<path d="M0 0 C2.30073694 1.56121436 2.91384861 2.7661605 3.875 5.375 C4.04025496 8.84535412 3.12346347 10.2907535 1 13 C-1.60902048 14.97925691 -2.81544156 15.01107351 -6.125 14.8125 C-9 14 -9 14 -11 11 C-11.36017958 7.61431194 -11.38185838 5.6727981 -9.6875 2.6875 C-6.84436133 -0.15563867 -3.85553733 -0.38555373 0 0 Z " fill="#DF87AB" transform="translate(428,82)"/>
<path d="M0 0 C2.875 -0.125 2.875 -0.125 6 0 C8 2 8 2 8.375 4.625 C7.76373626 10.12637366 5.36702824 15.44087199 1 19 C-2.1875 19.1875 -2.1875 19.1875 -5 19 C-4.03728324 15.06806209 -2.98347292 11.1603864 -1.9375 7.25 C-1.75123047 6.55261719 -1.56496094 5.85523437 -1.37304688 5.13671875 C-0.91564761 3.42440354 -0.45786215 1.7121915 0 0 Z " fill="#262123" transform="translate(200,95)"/>
<path d="M0 0 C0.66 0 1.32 0 2 0 C3.12644823 6.29485777 3.12817673 12.45677634 3.09765625 18.83984375 C3.09553383 20.52298424 3.09553383 20.52298424 3.09336853 22.24012756 C3.087794 25.80594608 3.07524616 29.37170062 3.0625 32.9375 C3.05748171 35.3626293 3.05291938 37.78775959 3.04882812 40.21289062 C3.03783291 46.14194872 3.0211202 52.07096979 3 58 C1.515 58.495 1.515 58.495 0 59 C0 39.53 0 20.06 0 0 Z " fill="#E289AE" transform="translate(132,100)"/>
<path d="M0 0 C0.33 0 0.66 0 1 0 C2.03544698 2.98912053 3.02410157 5.99097985 4 9 C4.309375 9.886875 4.61875 10.77375 4.9375 11.6875 C5.03753129 15.38865777 3.34691981 17.2724986 1 20 C-0.32 20 -1.64 20 -3 20 C-3.66 13.73 -4.32 7.46 -5 1 C-2.525 1.495 -2.525 1.495 0 2 C0 1.34 0 0.68 0 0 Z " fill="#282325" transform="translate(328,108)"/>
<path d="M0 0 C2.97 0 5.94 0 9 0 C9 3.3 9 6.6 9 10 C6.03 10 3.06 10 0 10 C0 6.7 0 3.4 0 0 Z " fill="#E188AD" transform="translate(167,226)"/>
<path d="M0 0 C0.66 0.33 1.32 0.66 2 1 C1.88406494 1.55872803 1.76812988 2.11745605 1.64868164 2.69311523 C1.11572693 5.27372403 0.58908684 7.85558459 0.0625 10.4375 C-0.11990234 11.31599609 -0.30230469 12.19449219 -0.49023438 13.09960938 C-1.63214833 18.72613087 -2.44767115 24.2848499 -3 30 C-4.92103119 27.84506086 -5.95526842 26.58248291 -6.1796875 23.66015625 C-3.85689949 3.85689949 -3.85689949 3.85689949 0 0 Z " fill="#C27796" transform="translate(45,62)"/>
<path d="M0 0 C2.4375 1 2.4375 1 3.75 3.5625 C4.0903125 4.7690625 4.0903125 4.7690625 4.4375 6 C2.75 8.0625 2.75 8.0625 0.4375 10 C-2.3125 9.75 -2.3125 9.75 -4.5625 9 C-5.89091008 3.56559513 -5.89091008 3.56559513 -4.4375 1.0625 C-2.5625 0 -2.5625 0 0 0 Z " fill="#D581A4" transform="translate(61.5625,130)"/>
<path d="M0 0 C0.763125 0.20625 1.52625 0.4125 2.3125 0.625 C2.6425 2.935 2.9725 5.245 3.3125 7.625 C1.01471327 9.0200848 -0.1667967 9.69938619 -2.875 9.3125 C-4.6875 8.625 -4.6875 8.625 -5.6875 7.625 C-5.9375 4.6875 -5.9375 4.6875 -5.6875 1.625 C-2.6875 -0.375 -2.6875 -0.375 0 0 Z " fill="#B06D89" transform="translate(111.6875,130.375)"/>
<path d="M0 0 C0.680625 0.06703125 1.36125 0.1340625 2.0625 0.203125 C4 0.75 4 0.75 7 3.75 C-0.59 3.75 -8.18 3.75 -16 3.75 C-16 3.42 -16 3.09 -16 2.75 C-15.38511719 2.61722656 -14.77023438 2.48445312 -14.13671875 2.34765625 C-13.32847656 2.17105469 -12.52023438 1.99445313 -11.6875 1.8125 C-10.88699219 1.63847656 -10.08648437 1.46445313 -9.26171875 1.28515625 C-2.58758265 -0.29404348 -2.58758265 -0.29404348 0 0 Z " fill="#382D31" transform="translate(219,194.25)"/>
<path d="M0 0 C0.33 0 0.66 0 1 0 C1.6466598 8.01396246 2.16677223 15.95787245 2 24 C0 23 0 23 -1 20 C-1.09188685 18.53085066 -1.13066715 17.05795597 -1.1328125 15.5859375 C-1.13410156 14.74289063 -1.13539062 13.89984375 -1.13671875 13.03125 C-1.13285156 12.1546875 -1.12898438 11.278125 -1.125 10.375 C-1.12886719 9.49070313 -1.13273437 8.60640625 -1.13671875 7.6953125 C-1.13542969 6.85484375 -1.13414063 6.014375 -1.1328125 5.1484375 C-1.13168457 4.37677246 -1.13055664 3.60510742 -1.12939453 2.81005859 C-1 1 -1 1 0 0 Z " fill="#E288AD" transform="translate(55,223)"/>
<path d="M0 0 C5.12583611 -0.10251672 9.94997778 -0.03590199 15 1 C14.67 1.99 14.34 2.98 14 4 C7.07 3.67 0.14 3.34 -7 3 C-7 2.67 -7 2.34 -7 2 C-3.535 1.505 -3.535 1.505 0 1 C0 0.67 0 0.34 0 0 Z " fill="#BC7492" transform="translate(90,113)"/>
<path d="M0 0 C0.66 0 1.32 0 2 0 C1.71831703 1.95979427 1.42433283 3.91782378 1.125 5.875 C0.96257812 6.96554688 0.80015625 8.05609375 0.6328125 9.1796875 C0 12 0 12 -2 14 C-2.99 14.33 -3.98 14.66 -5 15 C-4.54705135 13.24859857 -4.08741252 11.49892656 -3.625 9.75 C-3.36976563 8.77546875 -3.11453125 7.8009375 -2.8515625 6.796875 C-2.10401491 4.34162697 -1.22876183 2.24382595 0 0 Z " fill="#C37797" transform="translate(133,158)"/>
<path d="M0 0 C2.72923388 -0.0270817 5.45819637 -0.04687847 8.1875 -0.0625 C8.95642578 -0.07087891 9.72535156 -0.07925781 10.51757812 -0.08789062 C14.48526789 -0.10491934 18.12571234 0.01395885 22 1 C22 1.33 22 1.66 22 2 C19.08379545 2.24901747 16.16888923 2.47485086 13.25 2.6875 C12.425 2.76033203 11.6 2.83316406 10.75 2.90820312 C4.57702246 3.33135078 4.57702246 3.33135078 1.421875 1.51953125 C0.95265625 1.01808594 0.4834375 0.51664062 0 0 Z " fill="#D481A4" transform="translate(73,113)"/>
<path d="M0 0 C1.32 0 2.64 0 4 0 C3.25 4.75 3.25 4.75 1 7 C-1.125 6.625 -1.125 6.625 -3 6 C-2.42655063 3.13275314 -2.1385485 2.1385485 0 0 Z " fill="#232021" transform="translate(268,122)"/>
<path d="M0 0 C-0.66 0 -1.32 0 -2 0 C-1.34 0.99 -0.68 1.98 0 3 C0 3.99 0 4.98 0 6 C-0.78375 5.814375 -1.5675 5.62875 -2.375 5.4375 C-4.97089775 4.74037734 -4.97089775 4.74037734 -7 6 C-6.625 3.0625 -6.625 3.0625 -6 0 C-3.50907189 -1.24546405 -2.58919267 -0.7767578 0 0 Z " fill="#8A586D" transform="translate(63,131)"/>
<path d="M0 0 C-0.33 0.66 -0.66 1.32 -1 2 C-0.34 2.66 0.32 3.32 1 4 C-0.98567708 3.96744792 -2.97135417 3.93489583 -4.95703125 3.90234375 C-7.20305461 3.91736783 -7.20305461 3.91736783 -10 5 C-10 4.34 -10 3.68 -10 3 C-9.34 3 -8.68 3 -8 3 C-8.33 2.01 -8.66 1.02 -9 0 C-2.25 -1.125 -2.25 -1.125 0 0 Z " fill="#C97B9B" transform="translate(91,141)"/>
<path d="M0 0 C0.66 0.33 1.32 0.66 2 1 C-1.07999946 4.67230705 -3.2482602 5.56802365 -8 6 C-8 5.34 -8 4.68 -8 4 C-6.71349294 3.30289269 -5.42059335 2.61757124 -4.125 1.9375 C-3.40570313 1.55464844 -2.68640625 1.17179688 -1.9453125 0.77734375 C-1.30335937 0.52082031 -0.66140625 0.26429688 0 0 Z " fill="#DC85A9" transform="translate(52,206)"/>
<path d="M0 0 C0.66 0.33 1.32 0.66 2 1 C1.34 2.98 0.68 4.96 0 7 C-0.66 7 -1.32 7 -2 7 C-2.125 4.625 -2.125 4.625 -2 2 C-1.34 1.34 -0.68 0.68 0 0 Z " fill="#D07FA1" transform="translate(45,62)"/>
<path d="M0 0 C0.66 0 1.32 0 2 0 C1.67 2.31 1.34 4.62 1 7 C0.01 7 -0.98 7 -2 7 C-1.125 1.125 -1.125 1.125 0 0 Z " fill="#CC7C9D" transform="translate(133,158)"/>
<path d="M0 0 C0 2.64 0 5.28 0 8 C-0.66 8 -1.32 8 -2 8 C-2.33 5.69 -2.66 3.38 -3 1 C-1 0 -1 0 0 0 Z " fill="#D07FA0" transform="translate(40,158)"/>
</svg>
